<svg width="292" height="107" viewBox="0 0 292 107" fill="none" xmlns="http://www.w3.org/2000/svg">
<path d="M77.1963 49.1719C84.7134 49.5097 96.0879 50.1339 103.49 49.9281C100.855 53.6279 96.2296 57.8757 93.0885 61.4375C84.0865 71.786 74.966 82.0307 65.7288 92.17C62.9906 95.3668 55.7068 104.451 53.0293 106.735C53.2998 104.611 53.2158 99.795 53.2221 97.5516L53.2545 81.9018C53.2642 78.2217 53.2139 73.6239 53.6329 70.0125C56.3373 68.5905 59.4868 64.9284 61.9511 62.9154C67.17 58.6524 72.0531 53.4213 77.1963 49.1719Z" fill="#FDFDFD"/>
<path d="M126.525 27.7315C132.725 27.5357 139.582 28.0686 145.864 27.877C150.441 27.8758 155.317 28.1858 158.707 31.665C163.876 36.9702 164.236 47.3035 158.603 52.4326C153.694 56.9019 148.147 56.7816 141.852 56.6543C139.078 56.6509 136.629 56.6433 133.861 56.8418C133.729 63.7299 133.901 70.4288 133.638 77.3418C131.329 77.3631 128.745 77.2681 126.416 77.2275V45.6348C126.415 40.0301 126.241 33.2634 126.525 27.7315ZM154.189 36.8613C153.44 29.8992 143.187 30.9829 138.089 31.1494L133.919 31.294C133.798 38.7735 133.9 46.227 133.804 53.6846C137.732 53.7004 146.776 54.0689 149.935 52.6807C155.609 49.5526 154.792 42.452 154.189 36.8613Z" fill="white"/>
<path d="M177.2 44.4838C185.09 43.6061 192.951 47.0173 194.841 55.2474C197.294 65.9228 193.757 75.7555 182.151 77.6781C173.062 78.5339 165.254 75.3717 163.543 65.4554C161.728 54.9387 166.104 46.2854 177.2 44.4838ZM187.511 53.4066C186.473 48.8433 182.746 47.2808 178.383 47.6468C176.45 47.9824 173.982 48.412 172.889 50.2591C170.314 54.6135 170.116 61.0963 170.98 65.931C172.012 71.7058 174.491 75.4357 180.91 74.9388C189.931 72.5366 189.141 60.5757 187.511 53.4066Z" fill="white"/>
<path d="M51.3951 0C51.7621 0.432055 51.1794 21.1469 50.9615 23.2936C46.7986 26.634 40.4793 33.9694 36.4039 37.9553C34.446 39.8702 29.3855 44.6752 27.807 46.4433C19.3882 46.8133 10.9668 47.1193 2.54346 47.3611L2.37988 47.0131C4.03945 44.3557 14.8177 34.5204 17.6255 31.847C28.7432 21.085 40.0006 10.4685 51.3951 0Z" fill="#FDFDFD"/>
<path d="M18.3473 49.2991C21.201 49.1393 24.5268 49.1534 27.4175 49.0977C29.7823 50.7042 32.4227 53.357 34.6033 55.2377C39.6659 59.604 44.4495 64.5041 49.3886 68.9452C45.4117 73.4178 36.3266 80.1492 31.3438 84.8404C24.9577 77.8208 18.9218 70.1736 12.3329 63.336C9.22993 60.1158 3.36173 52.1445 0 49.892C6.30795 49.5648 12.0404 49.4477 18.3473 49.2991Z" fill="#FDFDFD"/>
<path d="M53.6523 0.533203C54.5022 0.816633 60.1717 6.80604 61.1475 7.7721L82.3592 28.6863C86.6598 32.8931 90.9389 37.1212 95.1969 41.3711C96.7264 42.9036 100.132 46.1436 101.165 47.7438C100.572 47.7849 99.6153 47.74 99.0049 47.7019C91.9126 47.261 84.7181 47.2116 77.643 46.6332C76.6668 45.2598 72.4994 41.3937 71.0759 39.881C65.9916 34.4788 59.8543 28.6779 55.1635 23.0286C54.4451 15.7331 54.5117 8.14865 53.6523 0.533203Z" fill="#FDFDFD"/>
<path d="M259.812 44.4961C263.883 43.9191 268.984 44.4337 272.45 46.9072C279.248 51.7585 275.171 65.5251 276.528 72.9375C277.02 75.6234 277.323 75.5529 279.589 77.2168C278.404 77.239 276.94 77.2426 275.785 77.3486C271.07 77.7816 270.526 77.3602 270.095 72.7871C265.263 77.3638 260.147 79.3817 253.412 77.1465C251.765 76.5994 250.804 75.5818 249.723 74.3037C247.394 70.7347 247.536 67.2779 249.89 63.7939C253.411 58.5843 263.933 57.8263 269.795 56.7422C269.577 53.9919 269.592 52.8393 268.595 50.2832C265.745 48.1575 262.1 47.5931 258.695 48.9472C256.318 49.8929 255.692 51.7642 254.798 53.9619C253.839 53.7797 249.833 53.3134 249.904 52.0898C250.178 47.4584 255.899 45.0638 259.812 44.4961ZM269.273 59.4619C265.619 59.951 259.162 61.427 256.81 64.4795C254.819 67.0656 254.884 71.0433 257.394 73.3545C260.727 74.4105 263.315 74.3363 266.525 72.7685C270.089 71.0286 269.661 68.459 269.67 65.0371C269.672 63.2967 269.883 61.407 269.69 59.6562C269.507 59.5484 269.423 59.449 269.273 59.4619Z" fill="white"/>
<path d="M235.621 31.7012L236.071 31.8555C237.037 33.6297 236.767 42.3245 236.76 44.9367C239.667 44.8148 242.485 45.1264 245.553 44.8699L245.537 48.1084C242.56 48.0089 239.533 48.1532 236.554 48.2518C236.452 51.7316 236.017 71.7123 237.37 73.2156C240.288 74.8278 244.357 72.1557 245.759 73.4478C246.015 74.272 245.981 74.413 245.868 75.2494C245.317 76.0805 245.379 75.8666 244.341 76.3476C241.93 77.1725 239.409 77.6306 236.86 77.7065C234.576 77.7659 230.811 77.5891 230.222 74.8095C229.483 71.3181 229.725 67.4627 229.75 63.8919C229.818 58.7715 229.818 53.6508 229.75 48.5305C227.874 48.5117 226.646 48.458 224.789 48.2459C224.689 47.2574 224.716 46.036 224.707 45.026L229.41 44.8046C230.009 39.2095 230.246 35.0289 235.621 31.7012Z" fill="#FDFDFD"/>
<path d="M286.267 26.6239C287.971 26.5272 290.033 26.5587 291.764 26.541C291.786 31.4524 292.203 75.3786 291.524 77.1997L290.944 77.3107L285.257 77.2502C285.252 72.0749 285.051 27.7094 285.585 26.7442L286.267 26.6239Z" fill="#FDFDFD"/>
<path d="M217.49 44.461C218.89 44.3568 220.564 44.4114 221.991 44.4238L221.987 49.828C221.13 49.7182 220.27 49.6398 219.406 49.5931C216.679 49.4671 213.853 49.894 211.794 51.8433C210.663 52.9227 209.875 54.3085 209.521 55.8304C209.29 56.8723 209.254 57.91 209.265 58.9719C209.331 65.0762 209.193 71.1743 209.073 77.2777C207.872 77.2911 203.547 77.4775 202.856 76.9682C202.611 67.0257 202.543 54.9024 202.858 45.0419C204.822 44.9123 206.83 44.9307 208.799 44.9225C208.794 46.4731 208.645 48.4743 209.12 49.8779C209.433 50.0637 209.614 50.1713 210.018 49.7415C212.838 46.7323 213.319 45.3872 217.49 44.461Z" fill="#FDFDFD"/>
</svg>
